<svg xmlns="http://www.w3.org/2000/svg" viewBox="0 0 48 48">
  <path fill="#EA4335" d="M24 9.5c3.54 0 6.07 1.53 7.47 2.81l5.44-5.44C33.64 3.61 29.23 1.5 24 1.5 14.86 1.5 7.14 6.98 3.96 14.68l6.72 5.22C12.25 14.01 17.62 9.5 24 9.5z"></path>
  <path fill="#4285F4" d="M46.5 24c0-1.64-.15-3.21-.43-4.73H24v9.01h12.69c-.55 2.96-2.21 5.46-4.7 7.14l7.2 5.59C43.55 36.99 46.5 30.99 46.5 24z"></path>
  <path fill="#FBBC05" d="M10.68 28.9c-.48-1.44-.76-2.98-.76-4.9s.28-3.46.76-4.9l-6.72-5.22C2.34 17.2 1.5 20.5 1.5 24s.84 6.8 2.46 10.12l6.72-5.22z"></path>
  <path fill="#34A853" d="M24 46.5c6.48 0 11.91-2.14 15.88-5.79l-7.2-5.59c-2 1.35-4.56 2.14-8.68 2.14-6.38 0-11.75-4.51-13.32-10.58l-6.72 5.22C7.14 41.02 14.86 46.5 24 46.5z"></path>
</svg>
